<svg width="900" height="260" viewBox="0 0 900 260" xmlns="http://www.w3.org/2000/svg">
  <defs>
    <linearGradient id="card" x1="0" y1="0" x2="0" y2="1">
      <stop offset="0" stop-color="#FDFAF9"/>
      <stop offset="1" stop-color="#F7EFEF"/>
    </linearGradient>
    <linearGradient id="craft" x1="0" y1="0" x2="1" y2="1">
      <stop offset="0" stop-color="#8A3940"/>
      <stop offset="1" stop-color="#A8474F"/>
    </linearGradient>
  </defs>

  <!-- card -->
  <rect x="10" y="10" width="880" height="240" rx="34" fill="url(#card)"/>
  <rect x="10.75" y="10.75" width="878.5" height="238.5" rx="33.25" fill="none" stroke="#ECD9DB" stroke-width="1.5"/>

  <!-- ===== Icon (user's mark, scaled) ===== -->
  <g transform="translate(64,70) scale(1.875)">
    <rect width="64" height="64" rx="14" fill="#8A3940"/>
    <rect x="14" y="15" width="16" height="12" rx="3" fill="#FFFFFF"/>
    <rect x="34" y="15" width="16" height="12" rx="3" fill="#FFFFFF"/>
    <rect x="24" y="38" width="16" height="12" rx="3" fill="#FFFFFF"/>
    <path d="M30 21H34" stroke="#F3ECEC" stroke-width="3" stroke-linecap="round"/>
    <path d="M22 27V34C22 36.2 23.8 38 26 38" stroke="#F3ECEC" stroke-width="3" stroke-linecap="round"/>
    <path d="M42 27V34C42 36.2 40.2 38 38 38" stroke="#F3ECEC" stroke-width="3" stroke-linecap="round"/>
  </g>

  <!-- divider -->
  <line x1="228" y1="78" x2="228" y2="182" stroke="#E4CFD1" stroke-width="2"/>

  <!-- ===== Wordmark ===== -->
  <text x="262" y="128" font-family="Poppins, 'Segoe UI', sans-serif" font-weight="700" font-size="68" dominant-baseline="central">
    <tspan fill="#2B2326">Case</tspan><tspan fill="url(#craft)">Craft</tspan>
  </text>

  <!-- subtitle -->
  <text x="266" y="188" font-family="Poppins, 'Segoe UI', sans-serif" font-weight="500" font-size="18" letter-spacing="4.5" fill="#9B7A7E">SOFTWARE MODELING WORKSPACE</text>
</svg>
